<svg width="32" height="32" viewBox="0 0 32 32" xmlns="http://www.w3.org/2000/svg">
  <!-- 背景 -->
  <rect width="32" height="32" fill="#ffffff"/>
  
  <!-- 帽子 -->
  <path d="M5 8 Q8 2 16 3 Q24 2 27 8 Q26 10 27 12 Q24 14 16 13 Q8 14 5 12 Q6 10 5 8Z" fill="#b38b6d"/>
  
  <!-- 猫脸 -->
  <circle cx="16" cy="18" r="10" fill="#f0f0f0"/>
  <!-- 耳朵 -->
  <path d="M10 10 L8 5 L11 8 Z" fill="#f0f0f0"/>
  <path d="M22 10 L24 5 L21 8 Z" fill="#f0f0f0"/>
  <!-- 眼睛 -->
  <circle cx="12" cy="16" r="2" fill="#333333"/>
  <circle cx="20" cy="16" r="2" fill="#333333"/>
  <!-- 鼻子 -->
  <path d="M15 19 L16 20 L17 19 Z" fill="#d3b8ae"/>
  <!-- 嘴 -->
  <path d="M14 21 Q16 22 18 21" stroke="#333333" stroke-width="0.8" fill="none"/>
  
  <!-- 文字“富公哦”（简化适配 32px 尺寸） -->
  <text x="2" y="30" font-size="8" fill="#000000" font-family="sans-serif">富公哦</text>
</svg>
